<svg width="84.000000" height="25.000000" viewBox="0 0 84 25" fill="none" xmlns="http://www.w3.org/2000/svg" xmlns:xlink="http://www.w3.org/1999/xlink">
	<desc>
			Created with Pixso.
	</desc>
	<defs/>
	<path id="Qtim" d="M6.23 23.49Q9.25 25 13.25 25L25.83 25L25.83 21.11L21.44 21.11C22.61 20.22 23.56 19.02 24.29 17.5Q24.92 16.17 25.18 14.78L25.18 14.77Q25.38 13.74 25.38 12.67C25.38 10.17 24.82 7.97 23.7 6.05Q22.84 4.52 21.62 3.36Q20.52 2.31 19.15 1.57Q18.65 1.3 18.13 1.07L18.13 1.07Q15.65 0 12.71 0Q9.7 0 7.18 1.09Q6.68 1.31 6.2 1.57Q4.98 2.24 3.98 3.14L3.98 3.14Q2.61 4.37 1.64 6.05Q1.55 6.21 1.46 6.37Q0 9.13 0 12.67Q0 16.33 1.56 19.11Q1.57 19.12 1.58 19.14Q1.59 19.16 1.61 19.18Q2.29 20.34 3.19 21.28Q4.48 22.61 6.23 23.49ZM26.71 4.2L33.94 4.2L33.94 25L38.29 25L38.29 4.2L45.52 4.2L45.52 0.52L26.71 0.52L26.71 4.2ZM49.63 0.52L53.98 0.52L53.98 25L49.63 25L49.63 0.52ZM63.71 0.52L59.46 0.52L59.46 25L63.58 25L63.58 9.1L70.7 25L72.76 25L79.88 9.1L79.88 25L84 25L84 0.52L79.75 0.52L71.73 18.45L63.71 0.52ZM17.95 19.46Q15.87 20.97 12.71 20.97Q9.41 20.97 7.28 19.39Q6.93 19.14 6.61 18.83Q6.34 18.57 6.1 18.28Q4.38 16.18 4.38 12.67C4.38 10.94 4.75 9.43 5.48 8.12Q6.17 6.87 7.19 5.99L7.19 5.99L7.19 5.99Q7.77 5.49 8.46 5.11Q8.93 4.85 9.43 4.65L9.43 4.65Q10.95 4.06 12.71 4.06Q14.56 4.06 16.14 4.72L16.14 4.72L16.14 4.72Q16.54 4.89 16.92 5.11C18.18 5.81 19.17 6.81 19.9 8.12C20.63 9.43 21 10.94 21 12.67Q21 16.04 19.36 18.11L19.36 18.11Q19.07 18.47 18.74 18.8Q18.36 19.16 17.95 19.46Z" fill="#101010" fill-opacity="1.000000" fill-rule="evenodd"/>
</svg>
